<svg xmlns="http://www.w3.org/2000/svg" viewBox="0 0 512 512" fill="none">
  <!-- Background circle -->
  <circle cx="256" cy="256" r="256" fill="#1e3a5f"/>

  <!-- Hotel building - main body -->
  <rect x="156" y="160" width="200" height="232" rx="8" fill="#ffffff"/>

  <!-- Roof / top accent -->
  <rect x="146" y="148" width="220" height="24" rx="6" fill="#90caf9"/>

  <!-- Door -->
  <rect x="230" y="320" width="52" height="72" rx="4" fill="#1e3a5f"/>
  <circle cx="272" cy="358" r="4" fill="#90caf9"/>

  <!-- Windows - row 1 -->
  <rect x="182" y="186" width="32" height="32" rx="4" fill="#1e3a5f"/>
  <rect x="240" y="186" width="32" height="32" rx="4" fill="#1e3a5f"/>
  <rect x="298" y="186" width="32" height="32" rx="4" fill="#1e3a5f"/>

  <!-- Windows - row 2 -->
  <rect x="182" y="240" width="32" height="32" rx="4" fill="#1e3a5f"/>
  <rect x="240" y="240" width="32" height="32" rx="4" fill="#1e3a5f"/>
  <rect x="298" y="240" width="32" height="32" rx="4" fill="#1e3a5f"/>

  <!-- Windows - row 3 -->
  <rect x="182" y="294" width="32" height="32" rx="4" fill="#1e3a5f"/>
  <rect x="298" y="294" width="32" height="32" rx="4" fill="#1e3a5f"/>

  <!-- Window glow accents -->
  <rect x="186" y="190" width="12" height="12" rx="2" fill="#90caf9" opacity="0.5"/>
  <rect x="244" y="190" width="12" height="12" rx="2" fill="#90caf9" opacity="0.5"/>
  <rect x="302" y="190" width="12" height="12" rx="2" fill="#90caf9" opacity="0.5"/>
  <rect x="186" y="244" width="12" height="12" rx="2" fill="#90caf9" opacity="0.5"/>
  <rect x="244" y="244" width="12" height="12" rx="2" fill="#90caf9" opacity="0.5"/>
  <rect x="302" y="244" width="12" height="12" rx="2" fill="#90caf9" opacity="0.5"/>
  <rect x="186" y="298" width="12" height="12" rx="2" fill="#90caf9" opacity="0.5"/>
  <rect x="302" y="298" width="12" height="12" rx="2" fill="#90caf9" opacity="0.5"/>

  <!-- Flag pole on roof -->
  <line x1="256" y1="100" x2="256" y2="148" stroke="#ffffff" stroke-width="3" stroke-linecap="round"/>
  <!-- Flag -->
  <path d="M258 100 L290 112 L258 124 Z" fill="#90caf9"/>
</svg>
